# xmcd
#
# Track frame offsets:
#	150
#	16047
#	32982
#	52037
#	66852
#	86142
#	103559
#	119944
#	133329
#	148599
#	164525
#	176368
#	191062
#
# Disc length: 2740 seconds
#
# Revision: 5
# Processed by: cddbd v1.5.2PL0 Copyright (c) Steve Scherf et al.
# Submitted via: EZCDAudioConverter 2.4.0.1
#
DISCID=c30ab20d
DTITLE=Leandro and Leonardo - Leandro and Leonardo Vol.8 (1994)
DYEAR=1994
DGENRE=Sertanejo
TTITLE0=Mulher Brasileira
TTITLE1=Não Sei Mais Dormir Sozinho
TTITLE2=25 Horas Por Dia
TTITLE3=Saudades Dela
TTITLE4=Dor De Amor Não Tem Jeito
TTITLE5=Índia
TTITLE6=Diga Pra Mim
TTITLE7=Casa Separa
TTITLE8=Cavaleiro Do Asfalto
TTITLE9=Brigar Com Ele
TTITLE10=Dod i De Amor
TTITLE11=Separados
TTITLE12=Achei Uma Louca
EXTD=
EXTT0=
EXTT1=
EXTT2=
EXTT3=
EXTT4=
EXTT5=
EXTT6=
EXTT7=
EXTT8=
EXTT9=
EXTT10=
EXTT11=
EXTT12=
PLAYORDER=
